<svg width="64" height="28" viewBox="0 0 99 44" fill="none" xmlns="http://www.w3.org/2000/svg"
    class="cursor-pointer">
    <path
        d="M91.1856 26.1317C90.0981 26.1317 89.0908 25.9534 88.1637 25.5968C87.2366 25.2403 86.4343 24.7411 85.7568 24.0992C85.0971 23.4752 84.6158 22.7353 84.3127 21.8795L87.5753 20.6494C87.7893 21.3268 88.2082 21.8706 88.8323 22.2807C89.4741 22.7086 90.2586 22.9225 91.1856 22.9225C91.8988 22.9225 92.5228 22.7888 93.0577 22.5214C93.6104 22.2539 94.0382 21.8617 94.3413 21.3447C94.6444 20.8455 94.796 20.2393 94.796 19.5261V16.21L95.4645 17.0123C94.9653 17.8859 94.2968 18.5456 93.4588 18.9913C92.6209 19.437 91.667 19.6599 90.5973 19.6599C89.2423 19.6599 88.03 19.3479 86.9602 18.7238C85.8905 18.0998 85.0526 17.2441 84.4464 16.1565C83.8402 15.069 83.5371 13.8477 83.5371 12.4927C83.5371 11.1199 83.8402 9.89862 84.4464 8.82889C85.0526 7.75917 85.8816 6.92122 86.9335 6.31504C87.9854 5.69103 89.1799 5.37903 90.5171 5.37903C91.6046 5.37903 92.5585 5.6108 93.3786 6.07435C94.2165 6.52007 94.9119 7.17082 95.4645 8.0266L94.9832 8.90912V5.69995H98.2993V19.5261C98.2993 20.792 97.9873 21.9241 97.3633 22.9225C96.7571 23.9209 95.9192 24.7054 94.8495 25.2759C93.7976 25.8464 92.5763 26.1317 91.1856 26.1317ZM91.0252 16.4239C91.774 16.4239 92.4247 16.2635 92.9774 15.9426C93.548 15.6038 93.9937 15.1403 94.3146 14.5519C94.6355 13.9636 94.796 13.2861 94.796 12.5194C94.796 11.7706 94.6266 11.1021 94.2878 10.5137C93.9669 9.90753 93.5212 9.43507 92.9507 9.09632C92.398 8.75758 91.7562 8.5882 91.0252 8.5882C90.2942 8.5882 89.6345 8.75758 89.0462 9.09632C88.4578 9.43507 87.9943 9.90753 87.6555 10.5137C87.3346 11.1021 87.1742 11.7706 87.1742 12.5194C87.1742 13.2683 87.3346 13.9368 87.6555 14.5252C87.9943 15.1135 88.4489 15.5771 89.0194 15.9158C89.6078 16.2546 90.2764 16.4239 91.0252 16.4239Z"
        fill="black"></path>
    <path
        d="M68.2563 20.2482V5.69995H71.5458V8.56146L71.2783 8.05334C71.6171 7.17973 72.1698 6.52007 72.9364 6.07435C73.7209 5.6108 74.6301 5.37903 75.6642 5.37903C76.7339 5.37903 77.6788 5.6108 78.499 6.07435C79.3369 6.5379 79.9877 7.18865 80.4512 8.0266C80.9148 8.84672 81.1465 9.80056 81.1465 10.8881V20.2482H77.6432V11.7171C77.6432 11.0753 77.5184 10.5226 77.2688 10.0591C77.0192 9.59553 76.6715 9.23895 76.2258 8.98935C75.7979 8.72192 75.2898 8.5882 74.7014 8.5882C74.1309 8.5882 73.6228 8.72192 73.1771 8.98935C72.7314 9.23895 72.3837 9.59553 72.1341 10.0591C71.8845 10.5226 71.7597 11.0753 71.7597 11.7171V20.2482H68.2563Z"
        fill="black"></path>
    <path
        d="M62.127 20.2487V5.70044H65.6303V20.2487H62.127ZM62.127 4.06911V0.325073H65.6303V4.06911H62.127Z"
        fill="black"></path>
    <path
        d="M46.6084 20.2482V5.69995H49.8978V8.56146L49.6304 8.05334C49.9691 7.17973 50.5218 6.52007 51.2884 6.07435C52.0729 5.6108 52.9822 5.37903 54.0162 5.37903C55.086 5.37903 56.0309 5.6108 56.851 6.07435C57.689 6.5379 58.3397 7.18865 58.8033 8.0266C59.2668 8.84672 59.4986 9.80056 59.4986 10.8881V20.2482H55.9952V11.7171C55.9952 11.0753 55.8704 10.5226 55.6208 10.0591C55.3712 9.59553 55.0236 9.23895 54.5778 8.98935C54.15 8.72192 53.6418 8.5882 53.0535 8.5882C52.483 8.5882 51.9748 8.72192 51.5291 8.98935C51.0834 9.23895 50.7358 9.59553 50.4861 10.0591C50.2365 10.5226 50.1117 11.0753 50.1117 11.7171V20.2482H46.6084Z"
        fill="black"></path>
    <path
        d="M36.2212 20.2488V5.7005H39.5106V8.93642L39.2432 8.45504C39.5819 7.36749 40.1079 6.60976 40.821 6.18187C41.552 5.75398 42.4256 5.54004 43.4418 5.54004H44.2976V8.64224H43.0407C42.0423 8.64224 41.24 8.95425 40.6338 9.57825C40.0276 10.1844 39.7245 11.0402 39.7245 12.1456V20.2488H36.2212Z"
        fill="black"></path>
    <path
        d="M7.99105 20.5694C6.93915 20.5694 5.96748 20.3643 5.07605 19.9543C4.20244 19.5264 3.50712 18.9202 2.99008 18.1357L3.33774 17.4404V20.2484H0.0483398V0.00390625H3.55169V8.58845L3.01683 7.86638C3.51603 7.08192 4.19352 6.47574 5.0493 6.04785C5.90508 5.60213 6.89458 5.37927 8.01779 5.37927C9.3906 5.37927 10.6297 5.71802 11.7351 6.39551C12.8405 7.073 13.7141 7.98227 14.3559 9.12331C15.0156 10.2643 15.3454 11.548 15.3454 12.9743C15.3454 14.3828 15.0245 15.6665 14.3827 16.8253C13.7408 17.9842 12.8672 18.9024 11.7618 19.5799C10.6564 20.2395 9.39952 20.5694 7.99105 20.5694ZM7.5899 17.3602C8.39219 17.3602 9.10534 17.173 9.72935 16.7986C10.3534 16.4242 10.8347 15.9071 11.1735 15.2475C11.5301 14.5878 11.7083 13.8301 11.7083 12.9743C11.7083 12.1185 11.5301 11.3697 11.1735 10.7279C10.8347 10.0682 10.3534 9.5512 9.72935 9.1768C9.10534 8.78456 8.39219 8.58845 7.5899 8.58845C6.82326 8.58845 6.12794 8.77565 5.50394 9.15005C4.89776 9.52446 4.41638 10.0504 4.05981 10.7279C3.72106 11.3876 3.55169 12.1364 3.55169 12.9743C3.55169 13.8301 3.72106 14.5878 4.05981 15.2475C4.41638 15.9071 4.89776 16.4242 5.50394 16.7986C6.12794 17.173 6.82326 17.3602 7.5899 17.3602Z"
        fill="black"></path>
    <rect x="17.8164" y="5.56738" width="3.98421" height="10.9156" fill="black"></rect>
    <rect x="21.8003" y="16.2646" width="3.98421" height="3.98421" fill="black"></rect>
    <rect x="25.7847" y="5.56738" width="3.98421" height="10.9156" fill="black"></rect>
    <rect x="29.7686" y="16.2646" width="3.98421" height="3.98421" fill="black"></rect>
    <path
        d="M50.3231 43.5564C48.772 43.5564 47.417 43.1909 46.2582 42.46C45.1171 41.7112 44.3327 40.7038 43.9048 39.438L46.5256 38.1811C46.9 39.0012 47.417 39.643 48.0767 40.1066C48.7542 40.5701 49.503 40.8019 50.3231 40.8019C50.965 40.8019 51.4731 40.6593 51.8475 40.374C52.2219 40.0887 52.4091 39.7143 52.4091 39.2508C52.4091 38.9655 52.3289 38.7338 52.1684 38.5555C52.0258 38.3593 51.8207 38.1989 51.5533 38.0741C51.3037 37.9315 51.0274 37.8156 50.7243 37.7264L48.3441 37.0578C47.114 36.7013 46.1779 36.1575 45.5361 35.4265C44.9121 34.6955 44.6001 33.8308 44.6001 32.8324C44.6001 31.941 44.823 31.1654 45.2687 30.5058C45.7322 29.8283 46.3651 29.3023 47.1674 28.9279C47.9876 28.5535 48.9236 28.3663 49.9755 28.3663C51.3483 28.3663 52.5606 28.6962 53.6125 29.3558C54.6644 30.0155 55.4132 30.9426 55.859 32.1371L53.1846 33.394C52.935 32.7344 52.5161 32.2084 51.9277 31.8162C51.3394 31.424 50.6797 31.2278 49.9487 31.2278C49.3604 31.2278 48.8968 31.3616 48.5581 31.629C48.2193 31.8964 48.05 32.2441 48.05 32.672C48.05 32.9394 48.1213 33.1712 48.2639 33.3673C48.4065 33.5634 48.6027 33.7239 48.8523 33.8487C49.1197 33.9735 49.4228 34.0894 49.7615 34.1963L52.0882 34.8917C53.2827 35.2482 54.2009 35.7831 54.8427 36.4962C55.5024 37.2094 55.8322 38.083 55.8322 39.1171C55.8322 39.9907 55.6004 40.7662 55.1369 41.4437C54.6733 42.1034 54.0315 42.6204 53.2114 42.9948C52.3913 43.3692 51.4285 43.5564 50.3231 43.5564Z"
        fill="black"></path>
    <path
        d="M34.6122 43.5564C33.1859 43.5564 31.8844 43.2266 30.7077 42.5669C29.5488 41.9073 28.6217 41.0069 27.9264 39.8659C27.2489 38.7248 26.9102 37.4233 26.9102 35.9614C26.9102 34.4994 27.2489 33.1979 27.9264 32.0569C28.6217 30.9158 29.5488 30.0155 30.7077 29.3558C31.8665 28.6962 33.168 28.3663 34.6122 28.3663C36.0385 28.3663 37.3311 28.6962 38.4899 29.3558C39.6488 30.0155 40.567 30.9158 41.2445 32.0569C41.9398 33.1801 42.2875 34.4816 42.2875 35.9614C42.2875 37.4233 41.9398 38.7248 41.2445 39.8659C40.5492 41.0069 39.6221 41.9073 38.4632 42.5669C37.3043 43.2266 36.0206 43.5564 34.6122 43.5564ZM34.6122 40.3473C35.3966 40.3473 36.083 40.1601 36.6714 39.7856C37.2776 39.4112 37.75 38.8942 38.0888 38.2345C38.4454 37.5571 38.6236 36.7993 38.6236 35.9614C38.6236 35.1056 38.4454 34.3568 38.0888 33.715C37.75 33.0553 37.2776 32.5383 36.6714 32.1639C36.083 31.7716 35.3966 31.5755 34.6122 31.5755C33.8099 31.5755 33.1057 31.7716 32.4995 32.1639C31.8933 32.5383 31.4119 33.0553 31.0553 33.715C30.7166 34.3568 30.5472 35.1056 30.5472 35.9614C30.5472 36.7993 30.7166 37.5571 31.0553 38.2345C31.4119 38.8942 31.8933 39.4112 32.4995 39.7856C33.1057 40.1601 33.8099 40.3473 34.6122 40.3473Z"
        fill="black"></path>
    <path
        d="M17.7642 43.2359V28.6877H21.0536V31.9236L20.7861 31.4422C21.1249 30.3547 21.6508 29.5969 22.364 29.1691C23.0949 28.7412 23.9686 28.5272 24.9848 28.5272H25.8406V31.6294H24.5837C23.5852 31.6294 22.7829 31.9414 22.1768 32.5654C21.5706 33.1716 21.2675 34.0274 21.2675 35.1328V43.2359H17.7642Z"
        fill="black"></path>
    <path
        d="M7.94271 43.5567C6.89081 43.5567 5.91915 43.3516 5.02771 42.9416C4.1541 42.5137 3.45878 41.9075 2.94174 41.123L3.2894 40.4277V43.2358H0V22.9912H3.50336V31.5758L2.96849 30.8537C3.46769 30.0692 4.14518 29.463 5.00096 29.0352C5.85674 28.5894 6.84624 28.3666 7.96945 28.3666C9.34227 28.3666 10.5814 28.7053 11.6867 29.3828C12.7921 30.0603 13.6657 30.9696 14.3076 32.1106C14.9672 33.2517 15.2971 34.5353 15.2971 35.9616C15.2971 37.3701 14.9762 38.6538 14.3343 39.8126C13.6925 40.9715 12.8189 41.8897 11.7135 42.5672C10.6081 43.2268 9.35118 43.5567 7.94271 43.5567ZM7.54157 40.3475C8.34386 40.3475 9.05701 40.1603 9.68102 39.7859C10.305 39.4115 10.7864 38.8945 11.1251 38.2348C11.4817 37.5751 11.66 36.8174 11.66 35.9616C11.66 35.1058 11.4817 34.357 11.1251 33.7152C10.7864 33.0555 10.305 32.5385 9.68102 32.1641C9.05701 31.7719 8.34386 31.5758 7.54157 31.5758C6.77493 31.5758 6.07961 31.763 5.4556 32.1374C4.84943 32.5118 4.36804 33.0377 4.01147 33.7152C3.67272 34.3749 3.50336 35.1237 3.50336 35.9616C3.50336 36.8174 3.67272 37.5751 4.01147 38.2348C4.36804 38.8945 4.84943 39.4115 5.4556 39.7859C6.07961 40.1603 6.77493 40.3475 7.54157 40.3475Z"
        fill="black"></path>
    <path d="M58.1655 39.5836H61.8753V43.2934H58.1655V39.5836Z" fill="black"></path>
</svg>