<svg xmlns="http://www.w3.org/2000/svg" xmlns:xlink="http://www.w3.org/1999/xlink" width="500" zoomAndPan="magnify" viewBox="0 0 375 374.999991" height="500" preserveAspectRatio="xMidYMid meet" version="1.0"><defs><clipPath id="fa89c5c374"><path d="M 0 21.328125 L 375 21.328125 L 375 353.578125 L 0 353.578125 Z M 0 21.328125 " clip-rule="nonzero"/></clipPath></defs><g clip-path="url(#fa89c5c374)"><path fill="#000000" d="M 187.5 353.585938 L 183.523438 350.886719 C 183.074219 350.585938 137.398438 319.386719 92.398438 276.261719 C 65.851562 250.761719 44.625 226.164062 29.324219 203.0625 C 9.898438 173.511719 0 146.136719 0 121.835938 C 0 66.488281 45.074219 21.414062 100.425781 21.414062 C 120.976562 21.414062 140.851562 27.710938 157.800781 39.710938 C 170.101562 48.414062 180.148438 59.511719 187.5 72.261719 C 194.851562 59.4375 204.898438 48.335938 217.199219 39.710938 C 234.148438 27.710938 254.023438 21.414062 274.574219 21.414062 C 329.925781 21.414062 375 66.488281 375 121.835938 L 375 121.914062 C 374.773438 146.0625 364.800781 173.210938 345.300781 202.6875 C 330 225.789062 308.851562 250.386719 282.300781 275.960938 C 237.375 319.238281 191.925781 350.585938 191.476562 350.886719 Z M 100.425781 35.4375 C 52.800781 35.4375 14.023438 74.210938 14.023438 121.835938 C 14.023438 143.363281 23.101562 168.039062 41.023438 195.1875 C 55.648438 217.386719 76.199219 241.238281 102 265.988281 C 138.523438 301.011719 175.574219 328.085938 187.5 336.488281 C 199.425781 328.011719 236.25 300.789062 272.699219 265.6875 C 298.425781 240.863281 318.898438 217.085938 333.601562 194.886719 C 351.523438 167.738281 360.75 143.210938 360.898438 121.835938 C 360.898438 74.210938 322.125 35.511719 274.5 35.511719 C 239.175781 35.511719 206.851562 57.863281 193.949219 91.164062 L 187.425781 108.113281 L 180.976562 91.164062 C 168.074219 57.863281 135.75 35.4375 100.425781 35.4375 Z M 100.425781 35.4375 " fill-opacity="1" fill-rule="nonzero"/></g></svg>